# xmcd CD database file
#
# Track frame offsets:
#	150
#	57667
#	93608
#	119843
#	203564
#	243419
#
# Disc length: 3483 seconds
#
# Revision: 1
# Processed by: cddbd v1.5.2PL0 Copyright (c) Steve Scherf et al.
# Submitted via: CDex 1.70beta2
#
DISCID=580d9906
DTITLE=Peter Brotzmann - Paal Nilssen-Love - Wood Cuts
DYEAR=2008
DGENRE=Jazz
TTITLE0=Wood Cuts
TTITLE1=Glasgow Kiss
TTITLE2=Strong and Thin
TTITLE3=Rode Hard and Put Up Wet
TTITLE4=Ye Gods and Little Fishes
TTITLE5=Knucklin
EXTD=YEAR: 2008
EXTT0=
EXTT1=
EXTT2=
EXTT3=
EXTT4=
EXTT5=
PLAYORDER=
